{"asset":{"version":"2.0","generator":"babylon.js glTF exporter for 3dsmax 2020 v20200410.2"},"scene":0,"scenes":[{"nodes":[0,8]}],"nodes":[{"children":[1,5,7],"rotation":[0.0,0.0,-4.76837158E-07,1.0],"name":"Corncobber"},{"children":[2,3,4],"translation":[1.53386509E-07,0.000258579239,-0.000520282949],"rotation":[0.8191521,5.85903251E-07,4.10253762E-07,0.573576331],"name":"Corncobber_ROOT"},{"translation":[0.0,-0.382801771,-0.217039257],"rotation":[-0.173648164,1.72019983E-21,4.12288035E-15,0.9848078],"scale":[0.7,0.699999869,0.699999869],"name":"Corncobber_Pipe_BONE"},{"skin":0,"mesh":0,"translation":[0.0,-0.07880604,-0.216517553],"rotation":[-0.819151938,-1.238793E-14,1.238793E-14,0.5735767],"scale":[1.0,0.99999994,0.99999994],"name":"Corncobber_MESH"},{"translation":[3.63797873E-14,0.437994629,-0.404960573],"rotation":[-0.173648179,8.600999E-22,3.60752E-15,0.9848078],"scale":[1.0,0.99999994,0.99999994],"name":"Corncobber_BONE"},{"children":[6],"translation":[-4.192333E-07,0.439597964,0.00407211669],"rotation":[0.0,0.0,-4.76837158E-07,1.0],"name":"Corncob_BONE"},{"mesh":1,"translation":[0.0721875057,-0.1960589,-0.00459232228],"rotation":[6.01917538E-09,3.37686821E-08,0.1754814,0.984482765],"name":"Corncob_MESH"},{"translation":[-2.2029262E-07,0.230993554,0.7117617],"rotation":[0.7071068,3.371748E-07,3.37174754E-07,0.7071067],"name":"BulletSpawnPoint"},{"name":"Default light"}],"meshes":[{"primitives":[{"attributes":{"POSITION":1,"NORMAL":2,"TEXCOORD_0":3,"JOINTS_0":4,"WEIGHTS_0":5},"indices":0,"material":0}],"name":"Corncobber_MESH"},{"primitives":[{"attributes":{"POSITION":7,"NORMAL":8,"TEXCOORD_0":9},"indices":6,"material":0}],"name":"Corncob_MESH"}],"accessors":[{"bufferView":0,"componentType":5123,"count":12954,"type":"SCALAR","name":"accessorIndices"},{"bufferView":1,"componentType":5126,"count":12954,"max":[0.117188744,0.305556625,0.712282062],"min":[-0.117188744,-0.409683526,-0.307928741],"type":"VEC3","name":"accessorPositions"},{"bufferView":1,"byteOffset":155448,"componentType":5126,"count":12954,"type":"VEC3","name":"accessorNormals"},{"bufferView":2,"componentType":5126,"count":12954,"type":"VEC2","name":"accessorUVs"},{"bufferView":3,"componentType":5123,"count":12954,"type":"VEC4","name":"accessorJoints"},{"bufferView":4,"componentType":5126,"count":12954,"type":"VEC4","name":"accessorWeights"},{"bufferView":0,"byteOffset":25908,"componentType":5123,"count":2376,"type":"SCALAR","name":"accessorIndices"},{"bufferView":1,"byteOffset":310896,"componentType":5126,"count":2376,"max":[0.07973655,0.289630532,0.478160352],"min":[-0.08175255,0.12631923,-0.09909022],"type":"VEC3","name":"accessorPositions"},{"bufferView":1,"byteOffset":339408,"componentType":5126,"count":2376,"type":"VEC3","name":"accessorNormals"},{"bufferView":2,"byteOffset":103632,"componentType":5126,"count":2376,"type":"VEC2","name":"accessorUVs"},{"bufferView":5,"componentType":5126,"count":3,"type":"MAT4","name":"accessorInverseBindMatrices"},{"bufferView":6,"componentType":5126,"count":2,"max":[0.8],"min":[0.0],"type":"SCALAR","name":"accessorAnimationInput"},{"bufferView":7,"componentType":5126,"count":2,"type":"VEC3","name":"accessorAnimationScales"},{"bufferView":6,"byteOffset":8,"componentType":5126,"count":2,"max":[0.8],"min":[0.0],"type":"SCALAR","name":"accessorAnimationInput"},{"bufferView":7,"byteOffset":24,"componentType":5126,"count":2,"type":"VEC3","name":"accessorAnimationScales"},{"bufferView":6,"byteOffset":16,"componentType":5126,"count":25,"max":[0.8],"min":[0.0],"type":"SCALAR","name":"accessorAnimationInput"},{"bufferView":7,"byteOffset":48,"componentType":5126,"count":25,"type":"VEC3","name":"accessorAnimationScales"},{"bufferView":6,"byteOffset":116,"componentType":5126,"count":2,"max":[0.8],"min":[0.0],"type":"SCALAR","name":"accessorAnimationInput"},{"bufferView":7,"byteOffset":348,"componentType":5126,"count":2,"type":"VEC3","name":"accessorAnimationScales"},{"bufferView":6,"byteOffset":124,"componentType":5126,"count":25,"max":[0.8],"min":[0.0],"type":"SCALAR","name":"accessorAnimationInput"},{"bufferView":7,"byteOffset":372,"componentType":5126,"count":25,"type":"VEC3","name":"accessorAnimationPositions"},{"bufferView":6,"byteOffset":224,"componentType":5126,"count":25,"max":[0.8],"min":[0.0],"type":"SCALAR","name":"accessorAnimationInput"},{"bufferView":8,"componentType":5126,"count":25,"type":"VEC4","name":"accessorAnimationRotations"},{"bufferView":6,"byteOffset":324,"componentType":5126,"count":2,"max":[0.8],"min":[0.0],"type":"SCALAR","name":"accessorAnimationInput"},{"bufferView":7,"byteOffset":672,"componentType":5126,"count":2,"type":"VEC3","name":"accessorAnimationScales"},{"bufferView":6,"byteOffset":332,"componentType":5126,"count":2,"max":[2.5],"min":[0.0],"type":"SCALAR","name":"accessorAnimationInput"},{"bufferView":7,"byteOffset":696,"componentType":5126,"count":2,"type":"VEC3","name":"accessorAnimationScales"},{"bufferView":6,"byteOffset":340,"componentType":5126,"count":2,"max":[2.5],"min":[0.0],"type":"SCALAR","name":"accessorAnimationInput"},{"bufferView":7,"byteOffset":720,"componentType":5126,"count":2,"type":"VEC3","name":"accessorAnimationScales"},{"bufferView":6,"byteOffset":348,"componentType":5126,"count":76,"max":[2.5],"min":[0.0],"type":"SCALAR","name":"accessorAnimationInput"},{"bufferView":7,"byteOffset":744,"componentType":5126,"count":76,"type":"VEC3","name":"accessorAnimationScales"},{"bufferView":6,"byteOffset":652,"componentType":5126,"count":2,"max":[2.5],"min":[0.0],"type":"SCALAR","name":"accessorAnimationInput"},{"bufferView":7,"byteOffset":1656,"componentType":5126,"count":2,"type":"VEC3","name":"accessorAnimationScales"},{"bufferView":6,"byteOffset":660,"componentType":5126,"count":76,"max":[2.5],"min":[0.0],"type":"SCALAR","name":"accessorAnimationInput"},{"bufferView":7,"byteOffset":1680,"componentType":5126,"count":76,"type":"VEC3","name":"accessorAnimationPositions"},{"bufferView":6,"byteOffset":964,"componentType":5126,"count":76,"max":[2.5],"min":[0.0],"type":"SCALAR","name":"accessorAnimationInput"},{"bufferView":8,"byteOffset":400,"componentType":5126,"count":76,"type":"VEC4","name":"accessorAnimationRotations"},{"bufferView":6,"byteOffset":1268,"componentType":5126,"count":2,"max":[2.5],"min":[0.0],"type":"SCALAR","name":"accessorAnimationInput"},{"bufferView":7,"byteOffset":2592,"componentType":5126,"count":2,"type":"VEC3","name":"accessorAnimationScales"}],"bufferViews":[{"buffer":0,"byteLength":30660,"name":"bufferViewScalar"},{"buffer":0,"byteOffset":30660,"byteLength":367920,"byteStride":12,"name":"bufferViewFloatVec3"},{"buffer":0,"byteOffset":398580,"byteLength":122640,"byteStride":8,"name":"bufferViewFloatVec2"},{"buffer":0,"byteOffset":521220,"byteLength":103632,"byteStride":8,"name":"bufferViewUnsignedShortVec4"},{"buffer":0,"byteOffset":624852,"byteLength":207264,"byteStride":16,"name":"bufferViewFloatVec4"},{"buffer":0,"byteOffset":832116,"byteLength":192,"name":"bufferViewFloatMat4"},{"buffer":0,"byteOffset":832308,"byteLength":1276,"name":"bufferViewAnimationFloatScalar"},{"buffer":0,"byteOffset":833584,"byteLength":2616,"name":"bufferViewAnimationFloatVec3"},{"buffer":0,"byteOffset":836200,"byteLength":1616,"name":"bufferViewAnimationFloatVec4"}],"buffers":[{"uri":"Corncobber.bin","byteLength":837816}],"materials":[{"pbrMetallicRoughness":{"baseColorTexture":{"index":1},"metallicRoughnessTexture":{"index":2}},"normalTexture":{"index":0},"name":"Corncobber"}],"textures":[{"sampler":0,"source":0,"name":"GunFromPainter_Corncobber_Normal.png"},{"sampler":0,"source":1,"name":"GunFromPainter_Corncobber_BaseColor.png"},{"sampler":0,"source":2,"name":"GunFromPainter_Corncobber_RoughnessGunFromPainter_Corncobber_Metallic.jpg"}],"images":[{"uri":"Textures/GunFromPainter_Corncobber_Normal.png"},{"uri":"Textures/GunFromPainter_Corncobber_BaseColor.png"},{"uri":"Textures/GunFromPainter_Corncobber_RoughnessGunFromPainter_Corncobber_Metallic.jpg"}],"samplers":[{"magFilter":9729,"minFilter":9987}],"animations":[{"channels":[{"sampler":0,"target":{"node":0,"path":"scale"}},{"sampler":1,"target":{"node":1,"path":"scale"}},{"sampler":2,"target":{"node":2,"path":"scale"}},{"sampler":3,"target":{"node":3,"path":"scale"}},{"sampler":4,"target":{"node":4,"path":"translation"}},{"sampler":5,"target":{"node":5,"path":"rotation"}},{"sampler":6,"target":{"node":6,"path":"scale"}}],"samplers":[{"input":11,"interpolation":0,"output":12},{"input":13,"interpolation":0,"output":14},{"input":15,"interpolation":0,"output":16},{"input":17,"interpolation":0,"output":18},{"input":19,"interpolation":0,"output":20},{"input":21,"interpolation":0,"output":22},{"input":23,"interpolation":0,"output":24}],"name":"Shoot"},{"channels":[{"sampler":0,"target":{"node":0,"path":"scale"}},{"sampler":1,"target":{"node":1,"path":"scale"}},{"sampler":2,"target":{"node":2,"path":"scale"}},{"sampler":3,"target":{"node":3,"path":"scale"}},{"sampler":4,"target":{"node":4,"path":"translation"}},{"sampler":5,"target":{"node":5,"path":"rotation"}},{"sampler":6,"target":{"node":6,"path":"scale"}}],"samplers":[{"input":25,"interpolation":0,"output":26},{"input":27,"interpolation":0,"output":28},{"input":29,"interpolation":0,"output":30},{"input":31,"interpolation":0,"output":32},{"input":33,"interpolation":0,"output":34},{"input":35,"interpolation":0,"output":36},{"input":37,"interpolation":0,"output":38}],"name":"Idle"}],"skins":[{"inverseBindMatrices":10,"skeleton":1,"joints":[1,2,4],"name":"skeleton #0"}]}