{"asset":{"version":"2.0","generator":"babylon.js glTF exporter for Maya 2018 v20200429.2"},"scene":0,"scenes":[{"nodes":[0]}],"nodes":[{"children":[1,2,3,4,5],"name":"Carrot"},{"mesh":0,"scale":[1.75,1.0,1.75],"name":"Flesh","extras":{"currentUVSet":"map1"}},{"mesh":1,"scale":[1.75,1.0,1.75],"name":"Leaf1","extras":{"currentUVSet":"map1"}},{"mesh":2,"scale":[1.75,1.0,1.75],"name":"Leaf2","extras":{"currentUVSet":"map1"}},{"mesh":3,"scale":[1.75,1.0,1.75],"name":"Leaf3","extras":{"currentUVSet":"map1"}},{"mesh":4,"scale":[1.75,1.0,1.75],"name":"Leaf4","extras":{"currentUVSet":"map1"}}],"meshes":[{"primitives":[{"attributes":{"POSITION":1,"TANGENT":2,"NORMAL":3,"TEXCOORD_0":4},"indices":0,"material":0}],"name":"Flesh"},{"primitives":[{"attributes":{"POSITION":6,"TANGENT":7,"NORMAL":8,"TEXCOORD_0":9},"indices":5,"material":1}],"name":"Leaf1"},{"primitives":[{"attributes":{"POSITION":11,"TANGENT":12,"NORMAL":13,"TEXCOORD_0":14},"indices":10,"material":1}],"name":"Leaf2"},{"primitives":[{"attributes":{"POSITION":16,"TANGENT":17,"NORMAL":18,"TEXCOORD_0":19},"indices":15,"material":1}],"name":"Leaf3"},{"primitives":[{"attributes":{"POSITION":21,"TANGENT":22,"NORMAL":23,"TEXCOORD_0":24},"indices":20,"material":1}],"name":"Leaf4"}],"accessors":[{"bufferView":0,"componentType":5123,"count":468,"type":"SCALAR","name":"accessorIndices"},{"bufferView":1,"componentType":5126,"count":104,"max":[0.0397321321,0.0,0.0396408066],"min":[-0.0396406539,-0.4588054,-0.04004257],"type":"VEC3","name":"accessorPositions"},{"bufferView":2,"componentType":5126,"count":104,"type":"VEC4","name":"accessorTangents"},{"bufferView":1,"byteOffset":1248,"componentType":5126,"count":104,"type":"VEC3","name":"accessorNormals"},{"bufferView":3,"componentType":5126,"count":104,"type":"VEC2","name":"accessorUVs"},{"bufferView":0,"byteOffset":936,"componentType":5123,"count":354,"type":"SCALAR","name":"accessorIndices"},{"bufferView":1,"byteOffset":2496,"componentType":5126,"count":72,"max":[0.005527103,0.267075181,0.000543575268],"min":[-0.07927612,-0.000107421874,-0.09421295],"type":"VEC3","name":"accessorPositions"},{"bufferView":2,"byteOffset":1664,"componentType":5126,"count":72,"type":"VEC4","name":"accessorTangents"},{"bufferView":1,"byteOffset":3360,"componentType":5126,"count":72,"type":"VEC3","name":"accessorNormals"},{"bufferView":3,"byteOffset":832,"componentType":5126,"count":72,"type":"VEC2","name":"accessorUVs"},{"bufferView":0,"byteOffset":1644,"componentType":5123,"count":354,"type":"SCALAR","name":"accessorIndices"},{"bufferView":1,"byteOffset":4224,"componentType":5126,"count":72,"max":[0.0273442827,0.334653318,0.00188640587],"min":[-0.0010289764,-0.00106567377,-0.0677153],"type":"VEC3","name":"accessorPositions"},{"bufferView":2,"byteOffset":2816,"componentType":5126,"count":72,"type":"VEC4","name":"accessorTangents"},{"bufferView":1,"byteOffset":5088,"componentType":5126,"count":72,"type":"VEC3","name":"accessorNormals"},{"bufferView":3,"byteOffset":1408,"componentType":5126,"count":72,"type":"VEC2","name":"accessorUVs"},{"bufferView":0,"byteOffset":2352,"componentType":5123,"count":306,"type":"SCALAR","name":"accessorIndices"},{"bufferView":1,"byteOffset":5952,"componentType":5126,"count":64,"max":[0.0115141673,0.328967273,0.0136102671],"min":[-0.0283414461,-0.0007836914,-0.00304553262],"type":"VEC3","name":"accessorPositions"},{"bufferView":2,"byteOffset":3968,"componentType":5126,"count":64,"type":"VEC4","name":"accessorTangents"},{"bufferView":1,"byteOffset":6720,"componentType":5126,"count":64,"type":"VEC3","name":"accessorNormals"},{"bufferView":3,"byteOffset":1984,"componentType":5126,"count":64,"type":"VEC2","name":"accessorUVs"},{"bufferView":0,"byteOffset":2964,"componentType":5123,"count":306,"type":"SCALAR","name":"accessorIndices"},{"bufferView":1,"byteOffset":7488,"componentType":5126,"count":64,"max":[0.0279262532,0.232962638,0.0428630039],"min":[-0.00122491829,-0.0007775879,-0.00225721346],"type":"VEC3","name":"accessorPositions"},{"bufferView":2,"byteOffset":4992,"componentType":5126,"count":64,"type":"VEC4","name":"accessorTangents"},{"bufferView":1,"byteOffset":8256,"componentType":5126,"count":64,"type":"VEC3","name":"accessorNormals"},{"bufferView":3,"byteOffset":2496,"componentType":5126,"count":64,"type":"VEC2","name":"accessorUVs"}],"bufferViews":[{"buffer":0,"byteLength":3576,"name":"bufferViewScalar"},{"buffer":0,"byteOffset":3576,"byteLength":9024,"byteStride":12,"name":"bufferViewFloatVec3"},{"buffer":0,"byteOffset":12600,"byteLength":6016,"byteStride":16,"name":"bufferViewFloatVec4"},{"buffer":0,"byteOffset":18616,"byteLength":3008,"byteStride":8,"name":"bufferViewFloatVec2"}],"buffers":[{"uri":"Carrot.bin","byteLength":21624}],"materials":[{"pbrMetallicRoughness":{"baseColorFactor":[1.0,0.4231,0.0,1.0],"metallicFactor":0.0},"name":"CarrotPBS"},{"pbrMetallicRoughness":{"baseColorFactor":[0.0,0.75,0.0,1.0],"metallicFactor":0.0,"roughnessFactor":0.33},"name":"CarrotLeavesPBS"}]}