{"asset":{"version":"2.0","generator":"babylon.js glTF exporter for Maya 2018 v20200429.2"},"scene":0,"scenes":[{"nodes":[0]}],"nodes":[{"mesh":0,"name":"FenceA","extras":{"currentUVSet":"map1"}}],"meshes":[{"primitives":[{"attributes":{"POSITION":1,"TANGENT":2,"NORMAL":3,"TEXCOORD_0":4},"indices":0,"material":0}],"name":"FenceA"}],"accessors":[{"bufferView":0,"componentType":5123,"count":1392,"type":"SCALAR","name":"accessorIndices"},{"bufferView":1,"componentType":5126,"count":566,"max":[2.02941275,1.25543809,0.121085204],"min":[-2.081643,-0.241909817,-0.1282019],"type":"VEC3","name":"accessorPositions"},{"bufferView":2,"componentType":5126,"count":566,"type":"VEC4","name":"accessorTangents"},{"bufferView":1,"byteOffset":6792,"componentType":5126,"count":566,"type":"VEC3","name":"accessorNormals"},{"bufferView":3,"componentType":5126,"count":566,"type":"VEC2","name":"accessorUVs"}],"bufferViews":[{"buffer":0,"byteLength":2784,"name":"bufferViewScalar"},{"buffer":0,"byteOffset":2784,"byteLength":13584,"byteStride":12,"name":"bufferViewFloatVec3"},{"buffer":0,"byteOffset":16368,"byteLength":9056,"byteStride":16,"name":"bufferViewFloatVec4"},{"buffer":0,"byteOffset":25424,"byteLength":4528,"byteStride":8,"name":"bufferViewFloatVec2"}],"buffers":[{"uri":"FenceA.bin","byteLength":29952}],"materials":[{"pbrMetallicRoughness":{"baseColorTexture":{"index":0},"metallicFactor":0.0},"name":"FencingPBS"}],"textures":[{"sampler":0,"source":0,"name":"Fencing_Color.png"}],"images":[{"uri":"Fencing_Color.png"}],"samplers":[{"magFilter":9729,"minFilter":9987}]}