{"asset":{"version":"2.0","generator":"babylon.js glTF exporter for 3dsmax 2020 v20200410.2"},"scene":0,"scenes":[{"nodes":[0,1]}],"nodes":[{"mesh":0,"name":"CarrotShiv"},{"name":"Default light"}],"meshes":[{"primitives":[{"attributes":{"POSITION":1,"NORMAL":2,"TEXCOORD_0":3},"indices":0,"material":0}],"name":"CarrotShiv"}],"accessors":[{"bufferView":0,"componentType":5123,"count":741,"type":"SCALAR","name":"accessorIndices"},{"bufferView":1,"componentType":5126,"count":741,"max":[0.0545075,0.1774023,0.0579319],"min":[-0.051638145,-0.261405438,-0.05909668],"type":"VEC3","name":"accessorPositions"},{"bufferView":1,"byteOffset":8892,"componentType":5126,"count":741,"type":"VEC3","name":"accessorNormals"},{"bufferView":2,"componentType":5126,"count":741,"type":"VEC2","name":"accessorUVs"}],"bufferViews":[{"buffer":0,"byteLength":1484,"name":"bufferViewScalar"},{"buffer":0,"byteOffset":1484,"byteLength":17784,"byteStride":12,"name":"bufferViewFloatVec3"},{"buffer":0,"byteOffset":19268,"byteLength":5928,"byteStride":8,"name":"bufferViewFloatVec2"}],"buffers":[{"uri":"CarrotShiv.bin","byteLength":25196}],"materials":[{"pbrMetallicRoughness":{"baseColorTexture":{"index":1},"metallicRoughnessTexture":{"index":2}},"normalTexture":{"index":0},"name":"Carrot Shiv"}],"textures":[{"sampler":0,"source":0,"name":"CarrotShiv_normal.png"},{"sampler":0,"source":1,"name":"CarrotShiv_basecolor.png"},{"sampler":0,"source":2,"name":"CarrotShiv_roughness0.jpg"}],"images":[{"uri":"Textures/CarrotShiv_normal.png"},{"uri":"Textures/CarrotShiv_basecolor.png"},{"uri":"Textures/CarrotShiv_roughness0.jpg"}],"samplers":[{"magFilter":9729,"minFilter":9987}]}