{"asset":{"version":"2.0","generator":"babylon.js glTF exporter for 3dsmax 2020 v20200410.2"},"scene":0,"scenes":[{"nodes":[0,3]}],"nodes":[{"children":[1,2],"rotation":[0.7071068,0.0,0.0,0.7071067],"name":"Shed"},{"mesh":0,"translation":[22.15,-33.75,2.4414062E-06],"rotation":[0.0,0.0,0.21643956,0.976296067],"name":"Shed_MESH"},{"mesh":1,"translation":[22.15,-33.75,2.4414062E-06],"rotation":[-5.81917767E-08,-1.29008031E-08,0.21643956,0.976296067],"name":"Collider_Shed"},{"name":"Default light"}],"meshes":[{"primitives":[{"attributes":{"POSITION":1,"NORMAL":2,"TEXCOORD_0":3},"indices":0,"material":0}],"name":"Shed_MESH"},{"primitives":[{"attributes":{"POSITION":5,"NORMAL":6,"TEXCOORD_0":7},"indices":4}],"name":"Collider_Shed"}],"accessors":[{"bufferView":0,"componentType":5123,"count":4824,"type":"SCALAR","name":"accessorIndices"},{"bufferView":1,"componentType":5126,"count":4824,"max":[1.82544613,1.95000136,4.51354879E-07],"min":[-1.825446,-1.94929564,-3.56202149],"type":"VEC3","name":"accessorPositions"},{"bufferView":1,"byteOffset":57888,"componentType":5126,"count":4824,"type":"VEC3","name":"accessorNormals"},{"bufferView":2,"componentType":5126,"count":4824,"type":"VEC2","name":"accessorUVs"},{"bufferView":0,"byteOffset":9648,"componentType":5123,"count":36,"type":"SCALAR","name":"accessorIndices"},{"bufferView":1,"byteOffset":115776,"componentType":5126,"count":36,"max":[1.33879733,1.87227488,1.70680252E-15],"min":[-1.33879733,-1.87227488,-2.210122],"type":"VEC3","name":"accessorPositions"},{"bufferView":1,"byteOffset":116208,"componentType":5126,"count":36,"type":"VEC3","name":"accessorNormals"},{"bufferView":2,"byteOffset":38592,"componentType":5126,"count":36,"type":"VEC2","name":"accessorUVs"}],"bufferViews":[{"buffer":0,"byteLength":9720,"name":"bufferViewScalar"},{"buffer":0,"byteOffset":9720,"byteLength":116640,"byteStride":12,"name":"bufferViewFloatVec3"},{"buffer":0,"byteOffset":126360,"byteLength":38880,"byteStride":8,"name":"bufferViewFloatVec2"}],"buffers":[{"uri":"Shed.bin","byteLength":165240}],"materials":[{"pbrMetallicRoughness":{"baseColorTexture":{"index":2},"metallicRoughnessTexture":{"index":3}},"normalTexture":{"index":0},"occlusionTexture":{"index":1},"name":"Shed"}],"textures":[{"sampler":0,"source":0,"name":"Shed_Normal.png"},{"sampler":0,"source":1,"name":"Shed_AO.png"},{"sampler":0,"source":2,"name":"Shed_BaseColor.png"},{"sampler":0,"source":3,"name":"Shed_RoughnessShed_Metallic.jpg"}],"images":[{"uri":"Textures/Shed_Normal.png"},{"uri":"Textures/Shed_AO.png"},{"uri":"Textures/Shed_BaseColor.png"},{"uri":"Textures/Shed_RoughnessShed_Metallic.jpg"}],"samplers":[{"magFilter":9729,"minFilter":9987}]}