{"asset":{"version":"2.0","generator":"babylon.js glTF exporter for 3dsmax 2020 v20200410.2"},"scene":0,"scenes":[{"nodes":[0,11]}],"nodes":[{"children":[1,10],"translation":[0.0,0.0,2.58407173E-16],"rotation":[0.7071068,0.0,0.0,0.7071067],"name":"CarrotSiren_ROOT"},{"children":[2,3,4,5,6,7,8,9],"skin":0,"mesh":0,"translation":[0.0,-2.58407173E-16,1.12953364E-23],"name":"CarrotSiren"},{"mesh":1,"translation":[0.04577055,0.125027165,-2.75158238],"rotation":[-0.03534848,0.05048305,-0.175191641,0.9826036],"scale":[1.27796721,1.277967,1.27796721],"name":"Siren_02"},{"mesh":2,"translation":[0.125005946,-0.0439749137,-2.77155352],"rotation":[-0.0357308649,-0.02501923,-0.8183725,0.5730304],"scale":[1.4177022,1.41770267,1.41770256],"name":"Siren_03"},{"mesh":3,"translation":[-0.0442789458,-0.122522883,-2.79743075],"rotation":[-1.47564414E-08,1.52855151E-07,0.9848078,0.173648149],"scale":[1.34396553,1.34396553,1.34396565],"name":"Siren_04"},{"mesh":4,"translation":[-0.123452529,0.0465078726,-2.7606163],"rotation":[0.0962496549,0.0143480254,0.5677358,0.817438841],"scale":[1.21579766,1.2157979,1.21579778],"name":"Siren_05"},{"mesh":5,"translation":[0.137522116,0.0650906339,-3.03534961],"rotation":[-0.207914,0.005219772,-0.515425563,0.831312835],"scale":[1.25854373,1.14543712,1.30573976],"name":"Siren_06"},{"mesh":6,"translation":[0.06475212,-0.1360147,-3.09484982],"rotation":[6.50451E-09,1.50837508E-07,0.9762585,-0.216608793],"scale":[1.25350213,1.30022812,1.21923339],"name":"Siren_07"},{"mesh":7,"translation":[-0.135971442,-0.06249481,-3.16945],"rotation":[-0.05008882,0.08343262,0.8414249,0.531539559],"scale":[1.041632,1.0416317,1.04163158],"name":"Siren_08"},{"mesh":8,"translation":[-0.06322472,0.138546452,-3.04535484],"rotation":[-0.0425854325,-0.009440977,0.21623382,0.9753668],"scale":[1.00183308,1.00183308,1.00183272],"name":"Siren_09"},{"translation":[-7.24792471E-07,-1.96287853E-09,-0.7259579],"name":"Press_BONE"},{"name":"Default light"}],"meshes":[{"primitives":[{"attributes":{"POSITION":1,"NORMAL":2,"TEXCOORD_0":3,"JOINTS_0":4,"WEIGHTS_0":5},"indices":0,"material":0}],"name":"CarrotSiren"},{"primitives":[{"attributes":{"POSITION":7,"NORMAL":8,"TEXCOORD_0":9},"indices":6,"material":0}],"name":"Siren_02"},{"primitives":[{"attributes":{"POSITION":11,"NORMAL":12,"TEXCOORD_0":13},"indices":10,"material":0}],"name":"Siren_03"},{"primitives":[{"attributes":{"POSITION":15,"NORMAL":16,"TEXCOORD_0":17},"indices":14,"material":0}],"name":"Siren_04"},{"primitives":[{"attributes":{"POSITION":19,"NORMAL":20,"TEXCOORD_0":21},"indices":18,"material":0}],"name":"Siren_05"},{"primitives":[{"attributes":{"POSITION":23,"NORMAL":24,"TEXCOORD_0":25},"indices":22,"material":0}],"name":"Siren_06"},{"primitives":[{"attributes":{"POSITION":27,"NORMAL":28,"TEXCOORD_0":29},"indices":26,"material":0}],"name":"Siren_07"},{"primitives":[{"attributes":{"POSITION":31,"NORMAL":32,"TEXCOORD_0":33},"indices":30,"material":0}],"name":"Siren_08"},{"primitives":[{"attributes":{"POSITION":35,"NORMAL":36,"TEXCOORD_0":37},"indices":34,"material":0}],"name":"Siren_09"}],"accessors":[{"bufferView":0,"componentType":5123,"count":12060,"type":"SCALAR","name":"accessorIndices"},{"bufferView":1,"componentType":5126,"count":12060,"max":[0.743209064,0.6566359,0.08577154],"min":[-0.656636059,-0.6578255,-3.35222149],"type":"VEC3","name":"accessorPositions"},{"bufferView":1,"byteOffset":144720,"componentType":5126,"count":12060,"type":"VEC3","name":"accessorNormals"},{"bufferView":2,"componentType":5126,"count":12060,"type":"VEC2","name":"accessorUVs"},{"bufferView":3,"componentType":5123,"count":12060,"type":"VEC4","name":"accessorJoints"},{"bufferView":4,"componentType":5126,"count":12060,"type":"VEC4","name":"accessorWeights"},{"bufferView":0,"byteOffset":24120,"componentType":5123,"count":336,"type":"SCALAR","name":"accessorIndices"},{"bufferView":1,"byteOffset":289440,"componentType":5126,"count":336,"max":[0.171271667,0.2728839,0.09999998],"min":[-0.171271667,-1.19209282E-08,-0.100000016],"type":"VEC3","name":"accessorPositions"},{"bufferView":1,"byteOffset":293472,"componentType":5126,"count":336,"type":"VEC3","name":"accessorNormals"},{"bufferView":2,"byteOffset":96480,"componentType":5126,"count":336,"type":"VEC2","name":"accessorUVs"},{"bufferView":0,"byteOffset":24792,"componentType":5123,"count":336,"type":"SCALAR","name":"accessorIndices"},{"bufferView":1,"byteOffset":297504,"componentType":5126,"count":336,"max":[0.171271667,0.2728839,0.09999998],"min":[-0.171271667,-1.19209282E-08,-0.100000016],"type":"VEC3","name":"accessorPositions"},{"bufferView":1,"byteOffset":301536,"componentType":5126,"count":336,"type":"VEC3","name":"accessorNormals"},{"bufferView":2,"byteOffset":99168,"componentType":5126,"count":336,"type":"VEC2","name":"accessorUVs"},{"bufferView":0,"byteOffset":25464,"componentType":5123,"count":336,"type":"SCALAR","name":"accessorIndices"},{"bufferView":1,"byteOffset":305568,"componentType":5126,"count":336,"max":[0.171271667,0.2728839,0.09999998],"min":[-0.171271667,-1.19209282E-08,-0.100000016],"type":"VEC3","name":"accessorPositions"},{"bufferView":1,"byteOffset":309600,"componentType":5126,"count":336,"type":"VEC3","name":"accessorNormals"},{"bufferView":2,"byteOffset":101856,"componentType":5126,"count":336,"type":"VEC2","name":"accessorUVs"},{"bufferView":0,"byteOffset":26136,"componentType":5123,"count":336,"type":"SCALAR","name":"accessorIndices"},{"bufferView":1,"byteOffset":313632,"componentType":5126,"count":336,"max":[0.171271667,0.2728839,0.09999998],"min":[-0.171271667,-1.19209282E-08,-0.100000016],"type":"VEC3","name":"accessorPositions"},{"bufferView":1,"byteOffset":317664,"componentType":5126,"count":336,"type":"VEC3","name":"accessorNormals"},{"bufferView":2,"byteOffset":104544,"componentType":5126,"count":336,"type":"VEC2","name":"accessorUVs"},{"bufferView":0,"byteOffset":26808,"componentType":5123,"count":336,"type":"SCALAR","name":"accessorIndices"},{"bufferView":1,"byteOffset":321696,"componentType":5126,"count":336,"max":[0.171271667,0.2728839,0.09999998],"min":[-0.171271667,-1.19209282E-08,-0.100000016],"type":"VEC3","name":"accessorPositions"},{"bufferView":1,"byteOffset":325728,"componentType":5126,"count":336,"type":"VEC3","name":"accessorNormals"},{"bufferView":2,"byteOffset":107232,"componentType":5126,"count":336,"type":"VEC2","name":"accessorUVs"},{"bufferView":0,"byteOffset":27480,"componentType":5123,"count":336,"type":"SCALAR","name":"accessorIndices"},{"bufferView":1,"byteOffset":329760,"componentType":5126,"count":336,"max":[0.171271667,0.2728839,0.09999998],"min":[-0.171271667,-1.19209282E-08,-0.100000016],"type":"VEC3","name":"accessorPositions"},{"bufferView":1,"byteOffset":333792,"componentType":5126,"count":336,"type":"VEC3","name":"accessorNormals"},{"bufferView":2,"byteOffset":109920,"componentType":5126,"count":336,"type":"VEC2","name":"accessorUVs"},{"bufferView":0,"byteOffset":28152,"componentType":5123,"count":336,"type":"SCALAR","name":"accessorIndices"},{"bufferView":1,"byteOffset":337824,"componentType":5126,"count":336,"max":[0.171271667,0.2728839,0.09999998],"min":[-0.171271667,-1.19209282E-08,-0.100000016],"type":"VEC3","name":"accessorPositions"},{"bufferView":1,"byteOffset":341856,"componentType":5126,"count":336,"type":"VEC3","name":"accessorNormals"},{"bufferView":2,"byteOffset":112608,"componentType":5126,"count":336,"type":"VEC2","name":"accessorUVs"},{"bufferView":0,"byteOffset":28824,"componentType":5123,"count":336,"type":"SCALAR","name":"accessorIndices"},{"bufferView":1,"byteOffset":345888,"componentType":5126,"count":336,"max":[0.171271667,0.2728839,0.09999998],"min":[-0.171271667,-1.19209282E-08,-0.100000016],"type":"VEC3","name":"accessorPositions"},{"bufferView":1,"byteOffset":349920,"componentType":5126,"count":336,"type":"VEC3","name":"accessorNormals"},{"bufferView":2,"byteOffset":115296,"componentType":5126,"count":336,"type":"VEC2","name":"accessorUVs"},{"bufferView":5,"componentType":5126,"count":2,"type":"MAT4","name":"accessorInverseBindMatrices"},{"bufferView":6,"componentType":5126,"count":4,"max":[1.83333337],"min":[0.0],"type":"SCALAR","name":"accessorAnimationInput"},{"bufferView":7,"componentType":5126,"count":4,"type":"VEC4","name":"accessorAnimationRotations"},{"bufferView":6,"byteOffset":16,"componentType":5126,"count":22,"max":[1.83333337],"min":[0.0],"type":"SCALAR","name":"accessorAnimationInput"},{"bufferView":8,"componentType":5126,"count":22,"type":"VEC3","name":"accessorAnimationPositions"}],"bufferViews":[{"buffer":0,"byteLength":29496,"name":"bufferViewScalar"},{"buffer":0,"byteOffset":29496,"byteLength":353952,"byteStride":12,"name":"bufferViewFloatVec3"},{"buffer":0,"byteOffset":383448,"byteLength":117984,"byteStride":8,"name":"bufferViewFloatVec2"},{"buffer":0,"byteOffset":501432,"byteLength":96480,"byteStride":8,"name":"bufferViewUnsignedShortVec4"},{"buffer":0,"byteOffset":597912,"byteLength":192960,"byteStride":16,"name":"bufferViewFloatVec4"},{"buffer":0,"byteOffset":790872,"byteLength":128,"name":"bufferViewFloatMat4"},{"buffer":0,"byteOffset":791000,"byteLength":104,"name":"bufferViewAnimationFloatScalar"},{"buffer":0,"byteOffset":791104,"byteLength":64,"name":"bufferViewAnimationFloatVec4"},{"buffer":0,"byteOffset":791168,"byteLength":264,"name":"bufferViewAnimationFloatVec3"}],"buffers":[{"uri":"CarrotSiren.bin","byteLength":791432}],"materials":[{"pbrMetallicRoughness":{"baseColorTexture":{"index":2},"metallicRoughnessTexture":{"index":3}},"normalTexture":{"index":0},"occlusionTexture":{"index":1},"name":"CarrotSiren"}],"textures":[{"sampler":0,"source":0,"name":"CarrotSiren_Normal.png"},{"sampler":0,"source":1,"name":"CarrotSiren_AO.png"},{"sampler":0,"source":2,"name":"CarrotSiren_BaseColor.png"},{"sampler":0,"source":3,"name":"CarrotSiren_RoughnessCarrotSiren_Metallic.jpg"}],"images":[{"uri":"Textures/CarrotSiren_Normal.png"},{"uri":"Textures/CarrotSiren_AO.png"},{"uri":"Textures/CarrotSiren_BaseColor.png"},{"uri":"Textures/CarrotSiren_RoughnessCarrotSiren_Metallic.jpg"}],"samplers":[{"magFilter":9729,"minFilter":9987}],"animations":[{"channels":[{"sampler":0,"target":{"node":0,"path":"rotation"}},{"sampler":1,"target":{"node":10,"path":"translation"}}],"samplers":[{"input":39,"interpolation":0,"output":40},{"input":41,"interpolation":0,"output":42}],"name":"All Animations"}],"skins":[{"inverseBindMatrices":38,"skeleton":0,"joints":[0,10],"name":"skeleton #0"}]}