{"asset":{"version":"2.0","generator":"babylon.js glTF exporter for Maya 2018 v20200429.2"},"scene":0,"scenes":[{"nodes":[0]}],"nodes":[{"mesh":0,"name":"Burrow","extras":{"currentUVSet":"uvSet1"}}],"meshes":[{"primitives":[{"attributes":{"POSITION":1,"TANGENT":2,"NORMAL":3,"TEXCOORD_0":4},"indices":0,"material":0}],"name":"Burrow"}],"accessors":[{"bufferView":0,"componentType":5123,"count":11520,"type":"SCALAR","name":"accessorIndices"},{"bufferView":1,"componentType":5126,"count":2065,"max":[0.5464714,0.3124942,0.5277906],"min":[-0.546729863,0.00133769133,-0.524472058],"type":"VEC3","name":"accessorPositions"},{"bufferView":2,"componentType":5126,"count":2065,"type":"VEC4","name":"accessorTangents"},{"bufferView":1,"byteOffset":24780,"componentType":5126,"count":2065,"type":"VEC3","name":"accessorNormals"},{"bufferView":3,"componentType":5126,"count":2065,"type":"VEC2","name":"accessorUVs"}],"bufferViews":[{"buffer":0,"byteLength":23040,"name":"bufferViewScalar"},{"buffer":0,"byteOffset":23040,"byteLength":49560,"byteStride":12,"name":"bufferViewFloatVec3"},{"buffer":0,"byteOffset":72600,"byteLength":33040,"byteStride":16,"name":"bufferViewFloatVec4"},{"buffer":0,"byteOffset":105640,"byteLength":16520,"byteStride":8,"name":"bufferViewFloatVec2"}],"buffers":[{"uri":"Burrow.bin","byteLength":122160}],"materials":[{"pbrMetallicRoughness":{"baseColorTexture":{"index":1},"metallicFactor":0.0,"roughnessFactor":0.33},"normalTexture":{"index":0},"name":"StingrayPBS3"}],"textures":[{"sampler":0,"source":0,"name":"Burrow_Normal.png"},{"sampler":0,"source":1,"name":"Burrow_Color.png"}],"images":[{"uri":"Burrow_Normal.png"},{"uri":"Burrow_Color.png"}],"samplers":[{"magFilter":9729,"minFilter":9987}]}