{"asset":{"version":"2.0","generator":"babylon.js glTF exporter for Maya 2018 v20200429.2"},"scene":0,"scenes":[{"nodes":[0]}],"nodes":[{"mesh":0,"name":"FenceB","extras":{"currentUVSet":"map1"}}],"meshes":[{"primitives":[{"attributes":{"POSITION":1,"TANGENT":2,"NORMAL":3,"TEXCOORD_0":4},"indices":0,"material":0}],"name":"FenceB"}],"accessors":[{"bufferView":0,"componentType":5123,"count":1368,"type":"SCALAR","name":"accessorIndices"},{"bufferView":1,"componentType":5126,"count":558,"max":[2.02941275,1.25409079,0.121085204],"min":[-2.075679,-0.240609273,-0.1282019],"type":"VEC3","name":"accessorPositions"},{"bufferView":2,"componentType":5126,"count":558,"type":"VEC4","name":"accessorTangents"},{"bufferView":1,"byteOffset":6696,"componentType":5126,"count":558,"type":"VEC3","name":"accessorNormals"},{"bufferView":3,"componentType":5126,"count":558,"type":"VEC2","name":"accessorUVs"}],"bufferViews":[{"buffer":0,"byteLength":2736,"name":"bufferViewScalar"},{"buffer":0,"byteOffset":2736,"byteLength":13392,"byteStride":12,"name":"bufferViewFloatVec3"},{"buffer":0,"byteOffset":16128,"byteLength":8928,"byteStride":16,"name":"bufferViewFloatVec4"},{"buffer":0,"byteOffset":25056,"byteLength":4464,"byteStride":8,"name":"bufferViewFloatVec2"}],"buffers":[{"uri":"FenceB.bin","byteLength":29520}],"materials":[{"pbrMetallicRoughness":{"baseColorTexture":{"index":0},"metallicFactor":0.0},"name":"FencingPBS"}],"textures":[{"sampler":0,"source":0,"name":"Fencing_Color.png"}],"images":[{"uri":"Fencing_Color.png"}],"samplers":[{"magFilter":9729,"minFilter":9987}]}