{"asset":{"version":"2.0","generator":"babylon.js glTF exporter for Maya 2018 v20200429.2"},"scene":0,"scenes":[{"nodes":[0]}],"nodes":[{"children":[1],"name":"Gate"},{"children":[2,3,4,5,6,7,8,11,12,13],"translation":[-14.0,0.0,-38.0],"name":"GatePosition"},{"mesh":0,"translation":[14.0,0.0,38.0],"name":"Main","extras":{"currentUVSet":"map1"}},{"name":"MainPivot"},{"mesh":1,"translation":[0.0,0.1792094,0.0],"name":"Sign","extras":{"currentUVSet":"map1"}},{"mesh":2,"translation":[14.0,0.0,38.0],"name":"LeftPostBracket","extras":{"currentUVSet":"map1"}},{"translation":[8.2,-0.211848468,-0.234917819],"rotation":[0.0,0.0,0.342020154,0.9396926],"name":"LeftCrossPivot"},{"translation":[-8.2,-0.211848468,-0.234917819],"rotation":[0.0,0.0,-0.342020154,0.9396926],"name":"RightCrossPivot"},{"children":[9,10],"name":"LeftGateRotation"},{"mesh":3,"translation":[14.0,0.0,38.0],"name":"LeftGate","extras":{"currentUVSet":"map1"}},{"mesh":4,"translation":[14.0,0.0,38.0],"name":"LeftGateBracket","extras":{"currentUVSet":"map1"}},{"translation":[3.554,0.0,0.0],"name":"LeftGatePivot"},{"translation":[-3.554,0.0,0.0],"name":"RightGatePivot"},{"mesh":5,"translation":[-6.0,0.0,0.0],"name":"Post","extras":{"currentUVSet":"map1"}}],"meshes":[{"primitives":[{"attributes":{"POSITION":1,"TANGENT":2,"NORMAL":3,"TEXCOORD_0":4},"indices":0,"material":0}],"name":"Main"},{"primitives":[{"attributes":{"POSITION":6,"TANGENT":7,"NORMAL":8,"TEXCOORD_0":9},"indices":5,"material":0}],"name":"Sign"},{"primitives":[{"attributes":{"POSITION":11,"TANGENT":12,"NORMAL":13,"TEXCOORD_0":14},"indices":10,"material":0}],"name":"LeftPostBracket"},{"primitives":[{"attributes":{"POSITION":16,"TANGENT":17,"NORMAL":18,"TEXCOORD_0":19},"indices":15,"material":0}],"name":"LeftGate"},{"primitives":[{"attributes":{"POSITION":21,"TANGENT":22,"NORMAL":23,"TEXCOORD_0":24},"indices":20,"material":0}],"name":"LeftGateBracket"},{"primitives":[{"attributes":{"POSITION":26,"TANGENT":27,"NORMAL":28,"TEXCOORD_0":29},"indices":25,"material":0}],"name":"Post"}],"accessors":[{"bufferView":0,"componentType":5123,"count":1176,"type":"SCALAR","name":"accessorIndices"},{"bufferView":1,"componentType":5126,"count":440,"max":[-5.674525,5.50671434,-37.7255173],"min":[-22.3254738,-0.317134976,-38.4238472],"type":"VEC3","name":"accessorPositions"},{"bufferView":2,"componentType":5126,"count":440,"type":"VEC4","name":"accessorTangents"},{"bufferView":1,"byteOffset":5280,"componentType":5126,"count":440,"type":"VEC3","name":"accessorNormals"},{"bufferView":3,"componentType":5126,"count":440,"type":"VEC2","name":"accessorUVs"},{"bufferView":0,"byteOffset":2352,"componentType":5123,"count":36,"type":"SCALAR","name":"accessorIndices"},{"bufferView":1,"byteOffset":10560,"componentType":5126,"count":24,"max":[1.92190182,4.74335146,0.0391943343],"min":[-1.92190182,4.05433369,-0.0115185548],"type":"VEC3","name":"accessorPositions"},{"bufferView":2,"byteOffset":7040,"componentType":5126,"count":24,"type":"VEC4","name":"accessorTangents"},{"bufferView":1,"byteOffset":10848,"componentType":5126,"count":24,"type":"VEC3","name":"accessorNormals"},{"bufferView":3,"byteOffset":3520,"componentType":5126,"count":24,"type":"VEC2","name":"accessorUVs"},{"bufferView":0,"byteOffset":2424,"componentType":5123,"count":324,"type":"SCALAR","name":"accessorIndices"},{"bufferView":1,"byteOffset":11136,"componentType":5126,"count":140,"max":[-10.322793,2.03466678,-37.7931862],"min":[-10.4574318,0.297276825,-37.8125],"type":"VEC3","name":"accessorPositions"},{"bufferView":2,"byteOffset":7424,"componentType":5126,"count":140,"type":"VEC4","name":"accessorTangents"},{"bufferView":1,"byteOffset":12816,"componentType":5126,"count":140,"type":"VEC3","name":"accessorNormals"},{"bufferView":3,"byteOffset":3712,"componentType":5126,"count":140,"type":"VEC2","name":"accessorUVs"},{"bufferView":0,"byteOffset":3072,"componentType":5123,"count":396,"type":"SCALAR","name":"accessorIndices"},{"bufferView":1,"byteOffset":14496,"componentType":5126,"count":264,"max":[-10.4552088,2.22963428,-37.8125],"min":[-13.96119,0.0,-38.0297775],"type":"VEC3","name":"accessorPositions"},{"bufferView":2,"byteOffset":9664,"componentType":5126,"count":264,"type":"VEC4","name":"accessorTangents"},{"bufferView":1,"byteOffset":17664,"componentType":5126,"count":264,"type":"VEC3","name":"accessorNormals"},{"bufferView":3,"byteOffset":4832,"componentType":5126,"count":264,"type":"VEC2","name":"accessorUVs"},{"bufferView":0,"byteOffset":3864,"componentType":5123,"count":204,"type":"SCALAR","name":"accessorIndices"},{"bufferView":1,"byteOffset":20832,"componentType":5126,"count":88,"max":[-10.45743,2.03466678,-37.8003845],"min":[-10.5699129,0.2972769,-37.8125],"type":"VEC3","name":"accessorPositions"},{"bufferView":2,"byteOffset":13888,"componentType":5126,"count":88,"type":"VEC4","name":"accessorTangents"},{"bufferView":1,"byteOffset":21888,"componentType":5126,"count":88,"type":"VEC3","name":"accessorNormals"},{"bufferView":3,"byteOffset":6944,"componentType":5126,"count":88,"type":"VEC2","name":"accessorUVs"},{"bufferView":0,"byteOffset":4272,"componentType":5123,"count":180,"type":"SCALAR","name":"accessorIndices"},{"bufferView":1,"byteOffset":22944,"componentType":5126,"count":75,"max":[2.071098,1.25404513,0.06929804],"min":[1.9197402,-0.240609273,-0.06651855],"type":"VEC3","name":"accessorPositions"},{"bufferView":2,"byteOffset":15296,"componentType":5126,"count":75,"type":"VEC4","name":"accessorTangents"},{"bufferView":1,"byteOffset":23844,"componentType":5126,"count":75,"type":"VEC3","name":"accessorNormals"},{"bufferView":3,"byteOffset":7648,"componentType":5126,"count":75,"type":"VEC2","name":"accessorUVs"}],"bufferViews":[{"buffer":0,"byteLength":4632,"name":"bufferViewScalar"},{"buffer":0,"byteOffset":4632,"byteLength":24744,"byteStride":12,"name":"bufferViewFloatVec3"},{"buffer":0,"byteOffset":29376,"byteLength":16496,"byteStride":16,"name":"bufferViewFloatVec4"},{"buffer":0,"byteOffset":45872,"byteLength":8248,"byteStride":8,"name":"bufferViewFloatVec2"}],"buffers":[{"uri":"Gate.bin","byteLength":54120}],"materials":[{"pbrMetallicRoughness":{"baseColorTexture":{"index":0},"metallicFactor":0.0},"name":"FencingPBS"}],"textures":[{"sampler":0,"source":0,"name":"Fencing_Color.png"}],"images":[{"uri":"Fencing_Color.png"}],"samplers":[{"magFilter":9729,"minFilter":9987}]}