{"asset":{"version":"2.0","generator":"babylon.js glTF exporter for Maya 2018 v20200429.2"},"scene":0,"scenes":[{"nodes":[0]}],"nodes":[{"children":[1,7,20],"name":"Fencing"},{"children":[2,3,4,5,6],"name":"BlockolutFencing"},{"mesh":0,"name":"Fence69","extras":{"currentUVSet":"map1"}},{"mesh":1,"name":"Fence70","extras":{"currentUVSet":"map1"}},{"mesh":2,"name":"Fence73","extras":{"currentUVSet":"map1"}},{"mesh":3,"name":"Fence76","extras":{"currentUVSet":"map1"}},{"mesh":4,"translation":[0.0,0.0,3.18408155E-15],"rotation":[0.0,1.0,0.0,6.123234E-17],"name":"Fence77","extras":{"currentUVSet":"map1"}},{"children":[8],"name":"Gate"},{"children":[9,10,11,12,13,14,15,18,19],"translation":[-14.0,0.0,-38.0],"name":"GatePosition"},{"mesh":5,"translation":[14.0,0.0,38.0],"name":"Main","extras":{"currentUVSet":"map1"}},{"name":"MainPivot"},{"mesh":6,"name":"Sign","extras":{"currentUVSet":"map1"}},{"mesh":7,"translation":[14.0,0.0,38.0],"name":"LeftPostBracket","extras":{"currentUVSet":"map1"}},{"translation":[8.2,-0.211848468,-0.234917819],"rotation":[0.0,0.0,0.342020154,0.9396926],"name":"LeftCrossPivot"},{"translation":[-8.2,-0.211848468,-0.234917819],"rotation":[0.0,0.0,-0.342020154,0.9396926],"name":"RightCrossPivot"},{"children":[16,17],"name":"LeftGateRotation"},{"mesh":8,"translation":[14.0,0.0,38.0],"name":"LeftGate","extras":{"currentUVSet":"map1"}},{"mesh":9,"translation":[14.0,0.0,38.0],"name":"LeftGateBracket","extras":{"currentUVSet":"map1"}},{"translation":[3.554,0.0,0.0],"name":"LeftGatePivot"},{"translation":[-3.554,0.0,0.0],"name":"RightGatePivot"},{"mesh":10,"translation":[-24.0,0.0,-38.0],"name":"Fence","extras":{"currentUVSet":"map1"}}],"meshes":[{"primitives":[{"attributes":{"POSITION":1,"TANGENT":2,"NORMAL":3,"TEXCOORD_0":4},"indices":0,"material":0}],"name":"Fence69"},{"primitives":[{"attributes":{"POSITION":6,"TANGENT":7,"NORMAL":8,"TEXCOORD_0":9},"indices":5,"material":0}],"name":"Fence70"},{"primitives":[{"attributes":{"POSITION":11,"TANGENT":12,"NORMAL":13,"TEXCOORD_0":14},"indices":10,"material":0}],"name":"Fence73"},{"primitives":[{"attributes":{"POSITION":16,"TANGENT":17,"NORMAL":18,"TEXCOORD_0":19},"indices":15,"material":0}],"name":"Fence76"},{"primitives":[{"attributes":{"POSITION":21,"TANGENT":22,"NORMAL":23,"TEXCOORD_0":24},"indices":20,"material":0}],"name":"Fence77"},{"primitives":[{"attributes":{"POSITION":26,"TANGENT":27,"NORMAL":28,"TEXCOORD_0":29},"indices":25,"material":1}],"name":"Main"},{"primitives":[{"attributes":{"POSITION":31,"TANGENT":32,"NORMAL":33,"TEXCOORD_0":34},"indices":30,"material":1}],"name":"Sign"},{"primitives":[{"attributes":{"POSITION":36,"TANGENT":37,"NORMAL":38,"TEXCOORD_0":39},"indices":35,"material":1}],"name":"LeftPostBracket"},{"primitives":[{"attributes":{"POSITION":41,"TANGENT":42,"NORMAL":43,"TEXCOORD_0":44},"indices":40,"material":1}],"name":"LeftGate"},{"primitives":[{"attributes":{"POSITION":46,"TANGENT":47,"NORMAL":48,"TEXCOORD_0":49},"indices":45,"material":1}],"name":"LeftGateBracket"},{"primitives":[{"attributes":{"POSITION":51,"TANGENT":52,"NORMAL":53,"TEXCOORD_0":54},"indices":50,"material":1}],"name":"Fence"}],"accessors":[{"bufferView":0,"componentType":5123,"count":324,"type":"SCALAR","name":"accessorIndices"},{"bufferView":1,"componentType":5126,"count":216,"max":[-17.9377651,1.21190262,-37.890007],"min":[-22.062233,-0.120836057,-38.11121],"type":"VEC3","name":"accessorPositions"},{"bufferView":2,"componentType":5126,"count":216,"type":"VEC4","name":"accessorTangents"},{"bufferView":1,"byteOffset":2592,"componentType":5126,"count":216,"type":"VEC3","name":"accessorNormals"},{"bufferView":3,"componentType":5126,"count":216,"type":"VEC2","name":"accessorUVs"},{"bufferView":0,"byteOffset":648,"componentType":5123,"count":2916,"type":"SCALAR","name":"accessorIndices"},{"bufferView":1,"byteOffset":5184,"componentType":5126,"count":1944,"max":[26.062233,1.21190262,-37.890007],"min":[-10.0622339,-0.120836057,-38.11121],"type":"VEC3","name":"accessorPositions"},{"bufferView":2,"byteOffset":3456,"componentType":5126,"count":1944,"type":"VEC4","name":"accessorTangents"},{"bufferView":1,"byteOffset":28512,"componentType":5126,"count":1944,"type":"VEC3","name":"accessorNormals"},{"bufferView":3,"byteOffset":1728,"componentType":5126,"count":1944,"type":"VEC2","name":"accessorUVs"},{"bufferView":0,"byteOffset":6480,"componentType":5123,"count":4230,"type":"SCALAR","name":"accessorIndices"},{"bufferView":1,"byteOffset":51840,"componentType":5126,"count":2820,"max":[26.062233,1.21190262,38.1106],"min":[-26.062233,-0.120836057,37.8893967],"type":"VEC3","name":"accessorPositions"},{"bufferView":2,"byteOffset":34560,"componentType":5126,"count":2820,"type":"VEC4","name":"accessorTangents"},{"bufferView":1,"byteOffset":85680,"componentType":5126,"count":2820,"type":"VEC3","name":"accessorNormals"},{"bufferView":3,"byteOffset":17280,"componentType":5126,"count":2820,"type":"VEC2","name":"accessorUVs"},{"bufferView":0,"byteOffset":14940,"componentType":5123,"count":6192,"type":"SCALAR","name":"accessorIndices"},{"bufferView":1,"byteOffset":119520,"componentType":5126,"count":4128,"max":[26.1106,1.21190262,38.062233],"min":[25.8893986,-0.120836057,-38.062233],"type":"VEC3","name":"accessorPositions"},{"bufferView":2,"byteOffset":79680,"componentType":5126,"count":4128,"type":"VEC4","name":"accessorTangents"},{"bufferView":1,"byteOffset":169056,"componentType":5126,"count":4128,"type":"VEC3","name":"accessorNormals"},{"bufferView":3,"byteOffset":39840,"componentType":5126,"count":4128,"type":"VEC2","name":"accessorUVs"},{"bufferView":0,"byteOffset":27324,"componentType":5123,"count":6192,"type":"SCALAR","name":"accessorIndices"},{"bufferView":1,"byteOffset":218592,"componentType":5126,"count":4128,"max":[26.1106,1.21190262,38.062233],"min":[25.8893986,-0.120836057,-38.062233],"type":"VEC3","name":"accessorPositions"},{"bufferView":2,"byteOffset":145728,"componentType":5126,"count":4128,"type":"VEC4","name":"accessorTangents"},{"bufferView":1,"byteOffset":268128,"componentType":5126,"count":4128,"type":"VEC3","name":"accessorNormals"},{"bufferView":3,"byteOffset":72864,"componentType":5126,"count":4128,"type":"VEC2","name":"accessorUVs"},{"bufferView":0,"byteOffset":39708,"componentType":5123,"count":144,"type":"SCALAR","name":"accessorIndices"},{"bufferView":1,"byteOffset":317664,"componentType":5126,"count":96,"max":[-5.674525,5.4819293,-37.7632866],"min":[-22.3254738,-0.317134976,-38.39332],"type":"VEC3","name":"accessorPositions"},{"bufferView":2,"byteOffset":211776,"componentType":5126,"count":96,"type":"VEC4","name":"accessorTangents"},{"bufferView":1,"byteOffset":318816,"componentType":5126,"count":96,"type":"VEC3","name":"accessorNormals"},{"bufferView":3,"byteOffset":105888,"componentType":5126,"count":96,"type":"VEC2","name":"accessorUVs"},{"bufferView":0,"byteOffset":39996,"componentType":5123,"count":36,"type":"SCALAR","name":"accessorIndices"},{"bufferView":1,"byteOffset":319968,"componentType":5126,"count":24,"max":[1.92190182,4.74335146,0.0391943343],"min":[-1.92190182,4.05433369,-0.0115185548],"type":"VEC3","name":"accessorPositions"},{"bufferView":2,"byteOffset":213312,"componentType":5126,"count":24,"type":"VEC4","name":"accessorTangents"},{"bufferView":1,"byteOffset":320256,"componentType":5126,"count":24,"type":"VEC3","name":"accessorNormals"},{"bufferView":3,"byteOffset":106656,"componentType":5126,"count":24,"type":"VEC2","name":"accessorUVs"},{"bufferView":0,"byteOffset":40068,"componentType":5123,"count":324,"type":"SCALAR","name":"accessorIndices"},{"bufferView":1,"byteOffset":320544,"componentType":5126,"count":140,"max":[-10.322793,2.03466678,-37.7931862],"min":[-10.4574318,0.297276825,-37.8125],"type":"VEC3","name":"accessorPositions"},{"bufferView":2,"byteOffset":213696,"componentType":5126,"count":140,"type":"VEC4","name":"accessorTangents"},{"bufferView":1,"byteOffset":322224,"componentType":5126,"count":140,"type":"VEC3","name":"accessorNormals"},{"bufferView":3,"byteOffset":106848,"componentType":5126,"count":140,"type":"VEC2","name":"accessorUVs"},{"bufferView":0,"byteOffset":40716,"componentType":5123,"count":396,"type":"SCALAR","name":"accessorIndices"},{"bufferView":1,"byteOffset":323904,"componentType":5126,"count":264,"max":[-10.4552088,2.22963428,-37.8125],"min":[-13.96119,0.0,-38.0297775],"type":"VEC3","name":"accessorPositions"},{"bufferView":2,"byteOffset":215936,"componentType":5126,"count":264,"type":"VEC4","name":"accessorTangents"},{"bufferView":1,"byteOffset":327072,"componentType":5126,"count":264,"type":"VEC3","name":"accessorNormals"},{"bufferView":3,"byteOffset":107968,"componentType":5126,"count":264,"type":"VEC2","name":"accessorUVs"},{"bufferView":0,"byteOffset":41508,"componentType":5123,"count":204,"type":"SCALAR","name":"accessorIndices"},{"bufferView":1,"byteOffset":330240,"componentType":5126,"count":88,"max":[-10.45743,2.03466678,-37.8003845],"min":[-10.5699129,0.2972769,-37.8125],"type":"VEC3","name":"accessorPositions"},{"bufferView":2,"byteOffset":220160,"componentType":5126,"count":88,"type":"VEC4","name":"accessorTangents"},{"bufferView":1,"byteOffset":331296,"componentType":5126,"count":88,"type":"VEC3","name":"accessorNormals"},{"bufferView":3,"byteOffset":110080,"componentType":5126,"count":88,"type":"VEC2","name":"accessorUVs"},{"bufferView":0,"byteOffset":41916,"componentType":5123,"count":1572,"type":"SCALAR","name":"accessorIndices"},{"bufferView":1,"byteOffset":332352,"componentType":5126,"count":641,"max":[2.071098,1.25543809,0.121085204],"min":[-2.081643,-0.241909817,-0.1282019],"type":"VEC3","name":"accessorPositions"},{"bufferView":2,"byteOffset":221568,"componentType":5126,"count":641,"type":"VEC4","name":"accessorTangents"},{"bufferView":1,"byteOffset":340044,"componentType":5126,"count":641,"type":"VEC3","name":"accessorNormals"},{"bufferView":3,"byteOffset":110784,"componentType":5126,"count":641,"type":"VEC2","name":"accessorUVs"}],"bufferViews":[{"buffer":0,"byteLength":45060,"name":"bufferViewScalar"},{"buffer":0,"byteOffset":45060,"byteLength":347736,"byteStride":12,"name":"bufferViewFloatVec3"},{"buffer":0,"byteOffset":392796,"byteLength":231824,"byteStride":16,"name":"bufferViewFloatVec4"},{"buffer":0,"byteOffset":624620,"byteLength":115912,"byteStride":8,"name":"bufferViewFloatVec2"}],"buffers":[{"uri":"Fencing.bin","byteLength":740532}],"materials":[{"pbrMetallicRoughness":{"baseColorFactor":[0.580645144,0.580645144,0.580645144,1.0],"metallicFactor":0.0,"roughnessFactor":0.450053632},"name":"lambert2"},{"pbrMetallicRoughness":{"baseColorTexture":{"index":0},"metallicFactor":0.0,"roughnessFactor":0.33},"name":"GateFencePBR"}],"textures":[{"sampler":0,"source":0,"name":"GateFence_Color.png"}],"images":[{"uri":"GateFence_Color.png"}],"samplers":[{"magFilter":9729,"minFilter":9987}]}